<svg xmlns="http://www.w3.org/2000/svg" width="24" height="24" viewBox="0 0 24 24">
    <defs>
        <clipPath id="clip-path">
            <path d="M0,0h24v24h-24z"/>
        </clipPath>
    </defs>
    <g clip-path="url(#clip-path)">
        <path d="M2.897,20.69H4.552V21.517H2.897V20.69Z"
            fill="#A98E6A"/>
        <path d="M6.207,16.552H1.241C0.556,16.552 0,17.108 0,17.793V22.759C0,23.444 0.556,24 1.241,24H6.207C6.892,24 7.448,23.444 7.448,22.759V17.793C7.448,17.108 6.892,16.552 6.207,16.552ZM5.379,19.448H4.552V19.035H2.897V19.862H4.966C5.194,19.862 5.379,20.047 5.379,20.276V21.931C5.379,22.16 5.194,22.345 4.966,22.345H2.483C2.254,22.345 2.069,22.16 2.069,21.931V18.621C2.069,18.392 2.254,18.207 2.483,18.207H4.966C5.194,18.207 5.379,18.392 5.379,18.621V19.448Z" fill="#A98E6A"/>
        <path d="M1.241,15.724H6.207C6.892,15.724 7.448,15.168 7.448,14.483V10.324C6.976,10.28 6.535,10.073 6.198,9.739L4.735,8.276H1.241C0.556,8.276 0,8.832 0,9.517V14.483C0,15.168 0.556,15.724 1.241,15.724ZM2.483,13.241H4.138C4.366,13.241 4.552,13.056 4.552,12.828C4.552,12.599 4.366,12.414 4.138,12.414H3.31C3.082,12.414 2.897,12.229 2.897,12C2.897,11.771 3.082,11.586 3.31,11.586H4.138C4.366,11.586 4.552,11.401 4.552,11.172C4.552,10.944 4.366,10.759 4.138,10.759H2.483V9.931H4.138C4.824,9.932 5.379,10.488 5.378,11.173C5.378,11.478 5.266,11.773 5.062,12C5.519,12.511 5.476,13.296 4.965,13.753C4.737,13.956 4.443,14.069 4.138,14.069H2.483V13.241Z" fill="#A98E6A"/>
        <path d="M20.69,20.69H19.862C19.633,20.69 19.448,20.875 19.448,21.104C19.448,21.332 19.633,21.517 19.862,21.517H20.69C20.918,21.517 21.103,21.332 21.103,21.104C21.103,20.875 20.918,20.69 20.69,20.69Z" fill="#A98E6A"/>
        <path d="M14.483,16.552H9.517C8.832,16.552 8.276,17.108 8.276,17.793V22.759C8.276,23.444 8.832,24 9.517,24H14.483C15.168,24 15.724,23.444 15.724,22.759V17.793C15.724,17.108 15.168,16.552 14.483,16.552ZM12.818,22.435L12.009,22.255L12.725,19.035H11.333L11.565,19.731L10.778,19.993L10.365,18.751C10.292,18.535 10.41,18.3 10.627,18.228C10.669,18.214 10.714,18.207 10.759,18.207H13.241C13.47,18.207 13.655,18.392 13.656,18.62C13.656,18.651 13.652,18.681 13.646,18.711L12.818,22.435Z" fill="#A98E6A"/>
        <path d="M9.124,9.739C8.887,9.973 8.595,10.146 8.276,10.242V14.483C8.276,15.168 8.832,15.724 9.517,15.724H14.483C15.168,15.724 15.724,15.168 15.724,14.483V9.517C15.724,8.832 15.168,8.276 14.483,8.276H10.587L9.124,9.739ZM11.578,10.012L11.264,11.586H12.414V9.931H13.241V11.586H14.069V12.414H13.241V14.069H12.414V12.414H10.759C10.53,12.414 10.345,12.229 10.345,12C10.345,11.972 10.347,11.944 10.353,11.917L10.767,9.848L11.578,10.012Z" fill="#A98E6A"/>

    </g>
</svg>