<svg width="375" height="75" viewBox="0 0 375 75" fill="none" xmlns="http://www.w3.org/2000/svg">
<g filter="url(#filter0_bi_338_2575)">
<rect width="375" height="75" fill="#F0F4F9" fill-opacity="0.94"/>
<path d="M352.75 50.4167L350.833 48.5V56.5C350.833 57 350.5 57.3333 350 57.3333C349.5 57.3333 349.167 57 349.167 56.5V48.5L347.25 50.4167C346.917 50.75 346.417 50.75 346.083 50.4167C345.75 50.0833 345.75 49.5833 346.083 49.25L349.417 45.9167C349.5 45.8333 349.583 45.75 349.667 45.75C349.833 45.6667 350.083 45.6667 350.333 45.75C350.417 45.75 350.5 45.8333 350.583 45.9167L353.917 49.25C354.25 49.5833 354.25 50.0833 353.917 50.4167C353.583 50.75 353.083 50.75 352.75 50.4167ZM342.5 55.6667C343 55.6667 343.333 56 343.333 56.5V59.8333C343.333 60.3333 343.667 60.6667 344.167 60.6667H355.833C356.333 60.6667 356.667 60.3333 356.667 59.8333V56.5C356.667 56 357 55.6667 357.5 55.6667C358 55.6667 358.333 56 358.333 56.5V59.8333C358.333 61.25 357.25 62.3333 355.833 62.3333H344.167C342.75 62.3333 341.667 61.25 341.667 59.8333V56.5C341.667 56 342 55.6667 342.5 55.6667Z" fill="black"/>
<path d="M319.75 58.5833L317.833 60.5V52.5C317.833 52 317.5 51.6667 317 51.6667C316.5 51.6667 316.167 52 316.167 52.5V60.5L314.25 58.5833C313.917 58.25 313.417 58.25 313.083 58.5833C312.75 58.9167 312.75 59.4167 313.083 59.75L316.417 63.0833C316.5 63.1667 316.583 63.25 316.667 63.25C316.833 63.3333 317.083 63.3333 317.333 63.25C317.417 63.25 317.5 63.1667 317.583 63.0833L320.917 59.75C321.25 59.4167 321.25 58.9167 320.917 58.5833C320.583 58.25 320.083 58.25 319.75 58.5833ZM309.5 53.3333C310 53.3333 310.333 53 310.333 52.5V49.1667C310.333 48.6667 310.667 48.3333 311.167 48.3333H322.833C323.333 48.3333 323.667 48.6667 323.667 49.1667V52.5C323.667 53 324 53.3333 324.5 53.3333C325 53.3333 325.333 53 325.333 52.5V49.1667C325.333 47.75 324.25 46.6667 322.833 46.6667H311.167C309.75 46.6667 308.667 47.75 308.667 49.1667V52.5C308.667 53 309 53.3333 309.5 53.3333Z" fill="black"/>
</g>
<defs>
<filter id="filter0_bi_338_2575" x="-20" y="-20" width="415" height="115" filterUnits="userSpaceOnUse" color-interpolation-filters="sRGB">
<feFlood flood-opacity="0" result="BackgroundImageFix"/>
<feGaussianBlur in="BackgroundImageFix" stdDeviation="10"/>
<feComposite in2="SourceAlpha" operator="in" result="effect1_backgroundBlur_338_2575"/>
<feBlend mode="normal" in="SourceGraphic" in2="effect1_backgroundBlur_338_2575" result="shape"/>
<feColorMatrix in="SourceAlpha" type="matrix" values="0 0 0 0 0 0 0 0 0 0 0 0 0 0 0 0 0 0 127 0" result="hardAlpha"/>
<feOffset dy="-0.5"/>
<feComposite in2="hardAlpha" operator="arithmetic" k2="-1" k3="1"/>
<feColorMatrix type="matrix" values="0 0 0 0 0.886275 0 0 0 0 0.909804 0 0 0 0 0.941176 0 0 0 1 0"/>
<feBlend mode="normal" in2="shape" result="effect2_innerShadow_338_2575"/>
</filter>
</defs>
</svg>
