<svg xmlns="http://www.w3.org/2000/svg" width="24" height="24" viewBox="0 0 24 24">
    <path d="M8.478,13.241C8.478,12.94 8.234,12.696 7.933,12.696H6.032C5.732,12.696 5.488,12.94 5.488,13.241V15.141C5.488,15.442 5.732,15.686 6.032,15.686H7.933C8.234,15.686 8.478,15.442 8.478,15.141V13.241Z" fill="#EEBA48"/>
    <path d="M13.229,13.241C13.229,12.94 12.985,12.696 12.685,12.696H10.783C10.483,12.696 10.239,12.94 10.239,13.241V15.141C10.239,15.442 10.483,15.686 10.783,15.686H12.685C12.985,15.686 13.229,15.442 13.229,15.141V13.241Z" fill="#EEBA48"/>
    <path d="M17.98,13.241C17.98,12.94 17.736,12.696 17.435,12.696H15.535C15.234,12.696 14.99,12.94 14.99,13.241V15.141C14.99,15.442 15.234,15.686 15.535,15.686H17.435C17.736,15.686 17.98,15.442 17.98,15.141V13.241Z" fill="#EEBA48"/>
    <path d="M8.478,17.992C8.478,17.691 8.234,17.447 7.933,17.447H6.032C5.732,17.447 5.488,17.691 5.488,17.992V19.892C5.488,20.193 5.732,20.437 6.032,20.437H7.933C8.234,20.437 8.478,20.193 8.478,19.892V17.992Z" fill="#EEBA48"/>
    <path d="M13.229,17.992C13.229,17.691 12.985,17.447 12.685,17.447H10.783C10.483,17.447 10.239,17.691 10.239,17.992V19.892C10.239,20.193 10.483,20.437 10.783,20.437H12.685C12.985,20.437 13.229,20.193 13.229,19.892V17.992Z" fill="#EEBA48"/>
    <path d="M17.98,17.992C17.98,17.691 17.736,17.447 17.436,17.447H15.535C15.234,17.447 14.99,17.691 14.99,17.992V19.892C14.99,20.193 15.234,20.437 15.535,20.437H17.436C17.736,20.437 17.98,20.193 17.98,19.892V17.992Z" fill="#EEBA48"/>
    <path d="M21.379,2.672V5.575C21.379,6.888 20.315,7.945 19.003,7.945H17.503C16.191,7.945 15.113,6.888 15.113,5.575V2.662H8.355V5.575C8.355,6.888 7.277,7.945 5.965,7.945H4.465C3.153,7.945 2.089,6.888 2.089,5.575V2.672C0.942,2.707 0,3.656 0,4.822V21.836C0,23.024 0.963,24 2.151,24H21.317C22.503,24 23.468,23.022 23.468,21.836V4.822C23.468,3.656 22.526,2.707 21.379,2.672ZM20.683,20.777C20.683,21.29 20.266,21.707 19.753,21.707H3.674C3.161,21.707 2.744,21.29 2.744,20.777V11.988C2.744,11.474 3.161,11.058 3.674,11.058H19.753C20.266,11.058 20.683,11.474 20.683,11.988L20.683,20.777Z" fill="#EEBA48"/>
    <path d="M4.46,6.389H5.943C6.393,6.389 6.758,6.024 6.758,5.574V0.815C6.758,0.365 6.393,0 5.943,0H4.46C4.01,0 3.645,0.365 3.645,0.815V5.574C3.645,6.024 4.01,6.389 4.46,6.389Z" fill="#EEBA48"/>
    <path d="M17.484,6.389H18.967C19.417,6.389 19.782,6.024 19.782,5.574V0.815C19.782,0.365 19.417,0 18.967,0H17.484C17.034,0 16.669,0.365 16.669,0.815V5.574C16.669,6.024 17.034,6.389 17.484,6.389Z" fill="#EEBA48"/>
</svg>







