<svg xmlns="http://www.w3.org/2000/svg" width="19" height="24" viewBox="0 0 19 24">
    <path d="M2.109,24H16.172C17.335,24 18.281,23.054 18.281,21.891V7.031H13.359C12.196,7.031 11.25,6.085 11.25,4.922V0H2.109C0.946,0 0,0.946 0,2.109V21.891C0,23.054 0.946,24 2.109,24ZM4.922,9.891H13.359C13.748,9.891 14.063,10.205 14.063,10.594C14.063,10.982 13.748,11.297 13.359,11.297H4.922C4.533,11.297 4.219,10.982 4.219,10.594C4.219,10.205 4.533,9.891 4.922,9.891ZM4.922,12.703H13.359C13.748,12.703 14.063,13.018 14.063,13.406C14.063,13.795 13.748,14.109 13.359,14.109H4.922C4.533,14.109 4.219,13.795 4.219,13.406C4.219,13.018 4.533,12.703 4.922,12.703ZM4.922,15.516H13.359C13.748,15.516 14.063,15.83 14.063,16.219C14.063,16.607 13.748,16.922 13.359,16.922H4.922C4.533,16.922 4.219,16.607 4.219,16.219C4.219,15.83 4.533,15.516 4.922,15.516ZM4.922,18.328H10.547C10.936,18.328 11.25,18.643 11.25,19.031C11.25,19.42 10.936,19.734 10.547,19.734H4.922C4.533,19.734 4.219,19.42 4.219,19.031C4.219,18.643 4.533,18.328 4.922,18.328Z"
        fill="#6728F2"/>
    <path d="M13.359,5.625H17.869L12.656,0.412V4.922C12.656,5.31 12.971,5.625 13.359,5.625Z" fill="#6728F2"/>
</svg>


