<svg xmlns="http://www.w3.org/2000/svg" width="24" height="24" viewBox="0 0 24 24">
    <defs>
        <clipPath id="clip-path">
            <path d="M0,0h24v24h-24z"/>
        </clipPath>
    </defs>
    <g clip-path="url(#clip-path)">
        <path d="M12,0C5.379,0 0,5.379 0,12C0,18.622 5.379,24 12,24C18.621,24 24,18.622 24,12C24,5.379 18.621,0 12,0ZM17.743,7.636C17.743,7.636 17.743,7.636 17.743,7.636C18.184,7.636 18.607,7.811 18.919,8.123C19.565,8.769 19.565,9.831 18.919,10.476C18.919,10.476 18.919,10.476 18.919,10.476L13.751,15.644C12.792,16.603 11.208,16.603 10.25,15.644L5.081,10.476C5.081,10.476 5.081,10.476 5.081,10.476C4.436,9.831 4.436,8.769 5.081,8.123C5.081,8.123 5.081,8.123 5.081,8.123C5.727,7.478 6.789,7.478 7.435,8.123C7.435,8.123 7.435,8.123 7.435,8.123L12,12.689L16.566,8.123C16.878,7.811 17.302,7.636 17.743,7.636H17.743Z" fill="#30EA64" fill-rule="evenodd"/>
    </g>
</svg>
