<svg width="26" height="26" viewBox="0 0 26 26" fill="none" xmlns="http://www.w3.org/2000/svg">
    <path
        d="M19.2866 13.1472C19.2112 13.0702 19.1212 13.0089 19.0219 12.9669C18.9225 12.925 18.8158 12.9032 18.708 12.9029C18.6002 12.9026 18.4934 12.9238 18.3938 12.9652C18.2943 13.0066 18.2039 13.0674 18.1281 13.1441C18.0523 13.2207 17.9925 13.3117 17.9522 13.4117C17.9119 13.5118 17.8919 13.6188 17.8934 13.7266C17.8949 13.8344 17.9178 13.9409 17.9608 14.0397C18.0039 14.1386 18.0662 14.2279 18.1441 14.3024C18.8334 14.9808 19.3803 15.7899 19.7527 16.6825C20.125 17.575 20.3154 18.5329 20.3125 19.5C20.3125 20.4938 17.464 21.9375 13 21.9375C8.53608 21.9375 5.68754 20.493 5.68754 19.4984C5.6848 18.5379 5.8726 17.5865 6.24007 16.6991C6.60753 15.8117 7.14737 15.006 7.82831 14.3287C7.90533 14.2536 7.96667 14.164 8.00878 14.065C8.05088 13.966 8.07292 13.8596 8.0736 13.7521C8.07428 13.6445 8.0536 13.5379 8.01275 13.4384C7.9719 13.3389 7.9117 13.2485 7.83564 13.1724C7.75958 13.0963 7.66917 13.0361 7.56967 12.9953C7.47016 12.9544 7.36353 12.9338 7.25597 12.9344C7.1484 12.9351 7.04205 12.9572 6.94306 12.9993C6.84408 13.0414 6.75445 13.1027 6.67936 13.1797C5.84689 14.0078 5.18696 14.9928 4.73778 16.0777C4.2886 17.1626 4.05909 18.3258 4.06254 19.5C4.06254 22.1387 8.66698 23.5625 13 23.5625C17.3331 23.5625 21.9375 22.1387 21.9375 19.5C21.9411 18.3179 21.7085 17.147 21.2533 16.0561C20.798 14.9651 20.1294 13.9761 19.2866 13.1472Z"
        fill="black" />
    <path
        d="M13 13.8125C14.1249 13.8125 15.2245 13.4789 16.1598 12.854C17.0951 12.229 17.8241 11.3408 18.2546 10.3015C18.685 9.26226 18.7977 8.11869 18.5782 7.01543C18.3588 5.91216 17.8171 4.89874 17.0217 4.10333C16.2263 3.30792 15.2128 2.76624 14.1096 2.54679C13.0063 2.32733 11.8627 2.43996 10.8235 2.87044C9.78423 3.30091 8.89597 4.02989 8.27102 4.9652C7.64607 5.9005 7.3125 7.00012 7.3125 8.125C7.31424 9.63289 7.91402 11.0785 8.98025 12.1447C10.0465 13.211 11.4921 13.8108 13 13.8125ZM13 4.0625C13.8035 4.0625 14.5889 4.30076 15.257 4.74716C15.9251 5.19355 16.4458 5.82803 16.7533 6.57035C17.0607 7.31268 17.1412 8.12951 16.9844 8.91756C16.8277 9.7056 16.4408 10.4295 15.8726 10.9976C15.3045 11.5658 14.5806 11.9527 13.7926 12.1094C13.0045 12.2662 12.1877 12.1857 11.4453 11.8783C10.703 11.5708 10.0685 11.0501 9.62216 10.382C9.17576 9.71393 8.9375 8.92849 8.9375 8.125C8.93877 7.04795 9.36719 6.01537 10.1288 5.25378C10.8904 4.49219 11.9229 4.06377 13 4.0625Z"
        fill="black" />
</svg>
