<svg xmlns="http://www.w3.org/2000/svg" width="24" height="24" viewBox="0 0 24 24">
    <path fill="#FA1515" d="M17,0.25H5C3.741,0.251 2.533,0.752 1.642,1.642C0.752,2.533 0.251,3.741 0.25,5V17C0.251,18.26 0.752,19.467 1.642,20.358C2.533,21.248 3.741,21.749 5,21.75H17C18.26,21.749 19.467,21.248 20.358,20.358C21.248,19.467 21.749,18.26 21.75,17V5C21.749,3.741 21.248,2.533 20.358,1.642C19.467,0.752 18.26,0.251 17,0.25ZM20.25,17C20.248,17.861 19.906,18.687 19.296,19.296C18.687,19.906 17.861,20.248 17,20.25H5C4.139,20.248 3.313,19.906 2.704,19.296C2.095,18.687 1.752,17.861 1.75,17V5C1.752,4.139 2.095,3.313 2.704,2.704C3.313,2.095 4.139,1.752 5,1.75H17C17.861,1.752 18.687,2.095 19.296,2.704C19.906,3.313 20.248,4.139 20.25,5V17Z"/>
    <path fill="#FA1515" d="M15,8.75C16.519,8.75 17.75,7.519 17.75,6C17.75,4.481 16.519,3.25 15,3.25C13.481,3.25 12.25,4.481 12.25,6C12.25,7.519 13.481,8.75 15,8.75Z"/>
    <path fill="#FA1515" d="M15.75,21C15.752,21.253 15.719,21.506 15.65,21.75H5C3.741,21.749 2.533,21.248 1.642,20.358C0.752,19.467 0.251,18.259 0.25,17V11.36C0.733,11.119 1.234,10.918 1.75,10.76C3.3,10.27 4.94,10.138 6.549,10.373C8.157,10.608 9.691,11.205 11.036,12.118C12.38,13.032 13.5,14.238 14.312,15.646C15.123,17.055 15.604,18.629 15.72,20.25C15.74,20.5 15.75,20.75 15.75,21Z"/>
    <path fill="#FA1515" d="M21.75,14.18V17C21.749,18.26 21.248,19.467 20.358,20.358C19.467,21.248 18.26,21.749 17,21.75H16.67C16.722,21.503 16.749,21.252 16.75,21C16.75,20.72 16.74,20.45 16.72,20.18C16.562,17.846 15.701,15.615 14.25,13.78C15.298,13.43 16.395,13.251 17.5,13.25C18.43,13.249 19.355,13.377 20.25,13.63C20.766,13.767 21.268,13.951 21.75,14.18Z"/>
</svg>

