<svg width="20" height="20" viewBox="0 0 20 20" fill="none" xmlns="http://www.w3.org/2000/svg">
<path d="M14.8021 12.251C14.8021 13.126 15.051 13.475 15.7021 13.475C17.1531 13.475 18.0771 11.626 18.0771 8.55104C18.0771 3.85104 14.6521 1.60104 10.376 1.60104C5.97708 1.60104 1.97604 4.55104 1.97604 10.126C1.97604 15.451 5.47604 18.351 10.851 18.351C12.676 18.351 13.901 18.151 15.775 17.526L16.1771 19.2C14.3271 19.801 12.35 19.975 10.826 19.975C3.77604 19.975 0 16.1 0 10.125C0 4.1 4.37604 0 10.401 0C16.676 0 20 3.75 20 8.34999C20 12.25 18.776 15.225 14.926 15.225C13.175 15.225 12.026 14.525 11.876 12.974C11.426 14.6989 10.226 15.225 8.6 15.225C6.425 15.225 4.6 13.5489 4.6 10.175C4.6 6.775 6.20104 4.675 9.07604 4.675C10.601 4.675 11.551 5.275 11.974 6.225L12.7 4.9H14.8V12.251H14.8021ZM11.7281 8.95104C11.7281 7.57708 10.7021 7.00104 9.85208 7.00104C8.92708 7.00104 7.90312 7.74999 7.90312 9.95103C7.90312 11.701 8.67812 12.676 9.85208 12.676C10.6771 12.676 11.7281 12.151 11.7281 10.701V8.95104Z" fill="#6A6A6A"/>
</svg>
