<svg width="24" height="24" viewBox="0 0 24 24" fill="none" xmlns="http://www.w3.org/2000/svg">
<path d="M14.673 22.89C14.3216 22.8882 13.9746 22.8115 13.6551 22.6651C13.3356 22.5187 13.0509 22.306 12.82 22.041C12.501 21.734 12.357 21.61 12.007 21.61C11.657 21.61 11.513 21.734 11.193 22.041C10.9631 22.3072 10.6786 22.5208 10.3587 22.6672C10.0389 22.8136 9.69129 22.8893 9.33954 22.8893C8.98779 22.8893 8.64017 22.8136 8.32033 22.6672C8.00049 22.5208 7.71594 22.3072 7.48604 22.041C7.16704 21.733 7.02204 21.609 6.67104 21.609C6.46595 21.6015 6.26582 21.6731 6.11204 21.809C5.85232 22.0204 5.53776 22.1534 5.20518 22.1926C4.87259 22.2317 4.53574 22.1753 4.23404 22.03C3.93773 21.8889 3.68779 21.6663 3.51351 21.3882C3.33923 21.1102 3.24783 20.7882 3.25004 20.46V3C3.25057 2.53603 3.43511 2.09122 3.76319 1.76315C4.09126 1.43507 4.53607 1.25053 5.00004 1.25H19C19.464 1.25053 19.9088 1.43507 20.2369 1.76315C20.565 2.09122 20.7495 2.53603 20.75 3V20.454C20.7521 20.7815 20.661 21.1028 20.4873 21.3805C20.3136 21.6581 20.0645 21.8806 19.769 22.022C19.4671 22.168 19.1298 22.2249 18.7967 22.1861C18.4636 22.1473 18.1484 22.0144 17.888 21.803C17.7364 21.6703 17.5394 21.6012 17.338 21.61C16.987 21.61 16.844 21.734 16.524 22.041C16.2935 22.3059 16.0092 22.5186 15.69 22.665C15.3709 22.8113 15.0242 22.8881 14.673 22.89ZM12.007 20.11C12.3583 20.1119 12.7052 20.1885 13.0245 20.3349C13.3439 20.4813 13.6284 20.6941 13.859 20.959C14.179 21.266 14.322 21.39 14.673 21.39C15.024 21.39 15.166 21.266 15.485 20.959C15.7159 20.694 16.0006 20.4813 16.3201 20.3349C16.6396 20.1885 16.9866 20.1118 17.338 20.11C17.8792 20.1007 18.4059 20.2851 18.823 20.63C18.8628 20.665 18.912 20.6874 18.9645 20.6945C19.017 20.7016 19.0704 20.6931 19.118 20.67C19.1594 20.6517 19.1943 20.6213 19.2178 20.5827C19.2414 20.5441 19.2527 20.4992 19.25 20.454V3C19.25 2.9337 19.2237 2.87011 19.1768 2.82322C19.1299 2.77634 19.0663 2.75 19 2.75H5.00004C4.93374 2.75 4.87015 2.77634 4.82326 2.82322C4.77638 2.87011 4.75004 2.9337 4.75004 3V20.458C4.7475 20.5035 4.75886 20.5488 4.78262 20.5877C4.80637 20.6266 4.84139 20.6574 4.88304 20.676C4.93014 20.6983 4.98267 20.7064 5.0343 20.6995C5.08594 20.6926 5.13447 20.6709 5.17404 20.637C5.5943 20.2865 6.1269 20.0994 6.67404 20.11C7.02548 20.1121 7.37248 20.1888 7.69209 20.3349C8.01169 20.4811 8.29662 20.6935 8.52804 20.958C8.84804 21.266 8.99204 21.39 9.34404 21.39C9.69604 21.39 9.83804 21.266 10.157 20.959C10.3876 20.6944 10.6718 20.4819 10.9907 20.3355C11.3097 20.1891 11.6561 20.1123 12.007 20.11Z" fill="black"/>
<path d="M16 6.75H10.5C10.3011 6.75 10.1103 6.67098 9.96967 6.53033C9.82902 6.38968 9.75 6.19891 9.75 6C9.75 5.80109 9.82902 5.61032 9.96967 5.46967C10.1103 5.32902 10.3011 5.25 10.5 5.25H16C16.1989 5.25 16.3897 5.32902 16.5303 5.46967C16.671 5.61032 16.75 5.80109 16.75 6C16.75 6.19891 16.671 6.38968 16.5303 6.53033C16.3897 6.67098 16.1989 6.75 16 6.75Z" fill="black"/>
<path d="M16 11.75H10.5C10.3011 11.75 10.1103 11.671 9.96967 11.5303C9.82902 11.3897 9.75 11.1989 9.75 11C9.75 10.8011 9.82902 10.6103 9.96967 10.4697C10.1103 10.329 10.3011 10.25 10.5 10.25H16C16.1989 10.25 16.3897 10.329 16.5303 10.4697C16.671 10.6103 16.75 10.8011 16.75 11C16.75 11.1989 16.671 11.3897 16.5303 11.5303C16.3897 11.671 16.1989 11.75 16 11.75Z" fill="black"/>
<path d="M16 16.75H10.5C10.3011 16.75 10.1103 16.671 9.96967 16.5303C9.82902 16.3897 9.75 16.1989 9.75 16C9.75 15.8011 9.82902 15.6103 9.96967 15.4697C10.1103 15.329 10.3011 15.25 10.5 15.25H16C16.1989 15.25 16.3897 15.329 16.5303 15.4697C16.671 15.6103 16.75 15.8011 16.75 16C16.75 16.1989 16.671 16.3897 16.5303 16.5303C16.3897 16.671 16.1989 16.75 16 16.75Z" fill="black"/>
<path d="M8 12C8.55228 12 9 11.5523 9 11C9 10.4477 8.55228 10 8 10C7.44772 10 7 10.4477 7 11C7 11.5523 7.44772 12 8 12Z" fill="black"/>
<path d="M8 7C8.55228 7 9 6.55228 9 6C9 5.44772 8.55228 5 8 5C7.44772 5 7 5.44772 7 6C7 6.55228 7.44772 7 8 7Z" fill="black"/>
<path d="M8 17C8.55228 17 9 16.5523 9 16C9 15.4477 8.55228 15 8 15C7.44772 15 7 15.4477 7 16C7 16.5523 7.44772 17 8 17Z" fill="black"/>
</svg>
