<svg width="16" height="16" viewBox="0 0 16 16" fill="none" xmlns="http://www.w3.org/2000/svg">
<g clip-path="url(#clip0_15_4359)">
<path d="M15.802 7.61687L14.09 6.40994C13.7799 6.19128 13.3511 6.41394 13.3511 6.79306V7.53125H5.13113C4.87226 7.53125 4.66235 7.74112 4.66235 8.00003C4.66235 8.25894 4.87226 8.46878 5.13113 8.46878H13.3511V9.20694C13.3511 9.58856 13.7821 9.80706 14.0899 9.59006L15.8019 8.38312C16.0634 8.19894 16.0686 7.80525 15.802 7.61687Z" fill="white"/>
<path d="M13.4522 11.0097C13.2282 10.8801 12.9414 10.9566 12.8117 11.1808C11.7106 13.0844 9.65225 14.3624 7.30009 14.3624C3.79178 14.3624 0.937531 11.5081 0.937531 7.9998C0.937531 4.49149 3.79178 1.63724 7.30009 1.63724C9.65381 1.63724 11.7112 2.91639 12.8117 4.81877C12.9413 5.04289 13.2282 5.11936 13.4522 4.98983C13.6763 4.86021 13.7528 4.57343 13.6233 4.34933C12.3568 2.16002 9.99153 0.699707 7.30009 0.699707C3.26531 0.699707 0 3.96468 0 7.9998C0 12.0346 3.26497 15.2999 7.30009 15.2999C9.99269 15.2999 12.3574 13.8386 13.6233 11.6502C13.7529 11.4261 13.6763 11.1394 13.4522 11.0097Z" fill="white"/>
</g>
<defs>
<clipPath id="clip0_15_4359">
<rect width="16" height="16" fill="white"/>
</clipPath>
</defs>
</svg>
