<svg xmlns="http://www.w3.org/2000/svg" width="22" height="22" viewBox="0 0 22 22">
    <path d="M8.938,11C8.938,12.137,9.863,13.063,11,13.063C12.137,13.063,13.063,12.137,13.063,11C13.063,9.863,12.137,8.938,11,8.938C9.863,8.938,8.938,9.863,8.938,11Z" fill="#000000"/>
    <path d="M8.938,17.875C8.938,19.012,9.863,19.938,11,19.938C12.137,19.938,13.063,19.012,13.063,17.875C13.063,16.738,12.137,15.813,11,15.813C9.863,15.813,8.938,16.738,8.938,17.875Z" fill="#000000"/>
    <path d="M8.938,4.125C8.938,5.262,9.863,6.188,11,6.188C12.137,6.188,13.063,5.262,13.063,4.125C13.063,2.988,12.137,2.063,11,2.063C9.863,2.063,8.938,2.988,8.938,4.125Z" fill="#000000"/>
</svg>
