<svg width="10"
    height="10"
    viewBox="0 0 40 80"
    fill="none"
    xmlns="http://www.w3.org/2000/svg">
    <path
        d="M113.29,60.41V54.02C113.29,52.28 112.6,50.61 111.37,49.38C110.14,48.15 108.47,47.46 106.73,47.46C98.9,47.46 85.99,47.46 79.08,47.46C76.27,47.46 73.77,49.26 72.87,51.92L72.24,53.85H32.36C30.61,53.85 28.94,54.54 27.71,55.77C26.48,57 25.79,58.67 25.79,60.41H113.29Z"
        fill="#0060A4"/>
    <path
        d="M25.48,108.97C25.48,108.97 27.19,119.88 28.39,127.56C29.14,132.35 33.26,135.88 38.12,135.88H101.89C106.74,135.88 110.86,132.35 111.61,127.56C113.58,114.95 117.59,89.3 119.82,75.06C120.26,72.22 119.44,69.32 117.57,67.14C115.7,64.95 112.96,63.69 110.09,63.69C90.79,63.69 49.21,63.69 29.91,63.69C27.04,63.69 24.3,64.95 22.43,67.14C20.56,69.32 19.74,72.22 20.18,75.06C21.98,86.52 24.65,103.65 24.65,103.65C24.75,104.25 25.31,104.66 25.9,104.57C26.5,104.47 26.91,103.91 26.81,103.32L22.35,74.72C22,72.51 22.64,70.26 24.09,68.56C25.55,66.86 27.67,65.88 29.91,65.88H110.09C112.33,65.88 114.45,66.86 115.91,68.56C117.36,70.26 118,72.51 117.65,74.72C115.43,88.96 111.42,114.61 109.45,127.22C108.87,130.95 105.66,133.69 101.89,133.69C86.85,133.69 53.15,133.69 38.12,133.69C34.34,133.69 31.13,130.95 30.55,127.22C29.35,119.54 27.65,108.64 27.65,108.64C27.55,108.04 26.99,107.63 26.4,107.73C25.8,107.82 25.39,108.38 25.48,108.97Z"
        fill="#738BAB"/>
    <path
        d="M37.66,119.09V121.33C37.66,124.35 40.11,126.8 43.13,126.8H60.63C63.65,126.8 66.1,124.35 66.1,121.33V116.95C66.1,113.93 63.65,111.48 60.63,111.48H43.13C41.62,111.48 40.26,112.09 39.27,113.08C38.84,113.51 38.84,114.2 39.26,114.63C39.69,115.05 40.38,115.06 40.81,114.63C41.4,114.04 42.22,113.67 43.13,113.67H60.63C62.44,113.67 63.91,115.14 63.91,116.95V121.33C63.91,123.14 62.44,124.61 60.63,124.61C60.63,124.61 43.13,124.61 43.13,124.61C41.32,124.61 39.85,123.14 39.85,121.33V119.09C39.85,118.49 39.36,118 38.75,118C38.15,118 37.66,118.49 37.66,119.09Z"
        fill="#738BAB"/>
    <path
        d="M51.58,48.98C52.28,47.77 53.22,46.67 54.38,45.71C54.84,45.32 54.91,44.63 54.52,44.17C54.14,43.7 53.45,43.64 52.98,44.02C51.61,45.15 50.51,46.46 49.68,47.89C49.38,48.41 49.56,49.08 50.08,49.38C50.61,49.68 51.28,49.51 51.58,48.98Z"
        fill="#738BAB"/>
    <path
        d="M58.59,43.26C60.34,42.56 62.34,42.08 64.56,41.86C65.16,41.8 65.6,41.26 65.54,40.66C65.48,40.06 64.94,39.62 64.34,39.68C61.9,39.93 59.71,40.46 57.78,41.23C57.22,41.45 56.94,42.09 57.16,42.65C57.39,43.21 58.02,43.48 58.59,43.26Z"
        fill="#738BAB"/>
    <path
        d="M69.92,41.82C72.5,42.01 74.87,42.05 77.03,41.96C77.64,41.94 78.1,41.43 78.08,40.82C78.05,40.22 77.54,39.75 76.94,39.78C74.86,39.86 72.57,39.82 70.08,39.63C69.48,39.59 68.95,40.04 68.91,40.64C68.86,41.25 69.32,41.77 69.92,41.82Z"
        fill="#738BAB"/>
    <path
        d="M82.94,41.31C85.49,40.83 87.65,40.13 89.47,39.25C90.01,38.99 90.24,38.34 89.98,37.79C89.72,37.25 89.07,37.02 88.52,37.28C86.86,38.08 84.87,38.73 82.53,39.17C81.94,39.28 81.55,39.85 81.66,40.44C81.77,41.04 82.34,41.42 82.94,41.31Z"
        fill="#738BAB"/>
    <path
        d="M93.93,36.21C95.89,34.32 97.04,32.14 97.56,29.93C97.69,29.34 97.33,28.75 96.74,28.61C96.15,28.47 95.56,28.84 95.43,29.43C95,31.27 94.03,33.07 92.41,34.64C91.97,35.06 91.96,35.75 92.38,36.19C92.8,36.62 93.49,36.63 93.93,36.21Z"
        fill="#738BAB"/>
    <path
        d="M97.04,22.4C96.17,20.09 94.69,18.13 92.9,16.89C92.41,16.55 91.72,16.68 91.38,17.17C91.04,17.67 91.16,18.35 91.66,18.69C93.11,19.7 94.29,21.3 94.99,23.17C95.2,23.73 95.83,24.02 96.4,23.8C96.96,23.59 97.25,22.96 97.04,22.4Z"
        fill="#738BAB"/>
    <path
        d="M68.54,16.89C69.74,11.25 74.53,8.51 77.98,8.49C79.11,8.49 80.09,8.75 80.6,9.44C80.9,9.84 80.99,10.38 80.88,11.05C80.78,11.64 81.18,12.21 81.77,12.31C82.37,12.42 82.93,12.02 83.04,11.42C83.27,10.05 82.97,8.96 82.36,8.13C81.48,6.96 79.89,6.3 77.96,6.31C73.76,6.33 67.86,9.57 66.4,16.43C66.27,17.03 66.65,17.6 67.24,17.73C67.83,17.86 68.41,17.48 68.54,16.89Z"
        fill="#738BAB"/>
    <path
        d="M66.41,16.89C67.89,23.72 73.77,26.95 77.96,26.97C80.04,26.99 81.72,26.21 82.54,24.88C83.04,24.07 83.25,23.05 83.02,21.79C82.74,20.25 81.72,18.27 79.6,15.93C79.19,15.48 78.5,15.45 78.05,15.85C77.61,16.26 77.57,16.95 77.98,17.4C79.46,19.03 80.34,20.42 80.72,21.6C81.01,22.49 81,23.2 80.68,23.73C80.39,24.2 79.86,24.49 79.23,24.65C78.44,24.85 77.48,24.83 76.48,24.62C73.27,23.94 69.59,21.26 68.55,16.43C68.42,15.84 67.83,15.47 67.24,15.59C66.66,15.72 66.28,16.3 66.41,16.89Z"
        fill="#738BAB"/>
    <path
        d="M67.18,18.85H81.83C83.03,18.85 84.01,17.87 84.01,16.66C84.01,15.45 83.03,14.47 81.83,14.47H67.18C65.97,14.47 64.99,15.45 64.99,16.66C64.99,17.87 65.97,18.85 67.18,18.85Z"
        fill="#0060A4"/>


</svg>
