<svg width="26" height="26" viewBox="0 0 26 26" fill="none" xmlns="http://www.w3.org/2000/svg">
<path d="M22.6428 20.7188L21.125 18.0651V11.375C21.125 9.22012 20.269 7.15349 18.7453 5.62976C17.2215 4.10602 15.1549 3.25 13 3.25C10.8451 3.25 8.77852 4.10602 7.25479 5.62976C5.73106 7.15349 4.87503 9.22012 4.87503 11.375V17.1665L3.31584 20.8049C3.26287 20.9285 3.24139 21.0632 3.25333 21.1972C3.26528 21.3311 3.31027 21.46 3.38427 21.5722C3.45827 21.6845 3.55898 21.7766 3.67735 21.8403C3.79573 21.9041 3.92808 21.9375 4.06253 21.9375H9.01878C9.20526 22.8559 9.7035 23.6815 10.4291 24.2746C11.1546 24.8676 12.0629 25.1916 13 25.1916C13.9371 25.1916 14.8454 24.8676 15.571 24.2746C16.2966 23.6815 16.7948 22.8559 16.9813 21.9375H21.9375C22.0803 21.9378 22.2206 21.9004 22.3443 21.8292C22.4681 21.7581 22.5709 21.6555 22.6424 21.5319C22.7139 21.4084 22.7516 21.2682 22.7516 21.1254C22.7517 20.9826 22.7142 20.8424 22.6428 20.7188ZM13 23.5625C12.4977 23.5604 12.0083 23.4032 11.5987 23.1123C11.1892 22.8214 10.8795 22.4111 10.712 21.9375H15.288C15.1206 22.4111 14.8109 22.8214 14.4014 23.1123C13.9918 23.4032 13.5024 23.5604 13 23.5625ZM5.29509 20.3125L6.43259 17.654C6.47678 17.5514 6.49919 17.4407 6.49841 17.329V11.375C6.49841 9.65109 7.18323 7.99779 8.40221 6.77881C9.6212 5.55982 11.2745 4.875 12.9984 4.875C14.7223 4.875 16.3756 5.55982 17.5946 6.77881C18.8136 7.99779 19.4984 9.65109 19.4984 11.375V18.2812C19.4976 18.4238 19.5347 18.5639 19.6057 18.6875L20.536 20.3125H5.29509Z" fill="black"/>
<path d="M11.375 2.4375H14.625C14.8405 2.4375 15.0472 2.3519 15.1995 2.19952C15.3519 2.04715 15.4375 1.84049 15.4375 1.625C15.4375 1.40951 15.3519 1.20285 15.1995 1.05048C15.0472 0.898102 14.8405 0.8125 14.625 0.8125H11.375C11.1595 0.8125 10.9528 0.898102 10.8005 1.05048C10.6481 1.20285 10.5625 1.40951 10.5625 1.625C10.5625 1.84049 10.6481 2.04715 10.8005 2.19952C10.9528 2.3519 11.1595 2.4375 11.375 2.4375Z" fill="black"/>
</svg>
