<svg width="24" height="24" viewBox="0 0 26 24" fill="none" xmlns="http://www.w3.org/2000/svg">
    <g clip-path="url(#clip0_15_4359)">
        <path
            d="M12,19.5C11.29,19.5 10.602,19.248 10.06,18.788C9.518,18.329 9.157,17.692 9.041,16.992C8.924,16.291 9.06,15.571 9.425,14.961C9.789,14.351 10.358,13.891 11.03,13.661C11.703,13.431 12.434,13.448 13.096,13.707C13.757,13.967 14.305,14.453 14.642,15.078C14.978,15.704 15.082,16.428 14.935,17.123C14.787,17.818 14.398,18.438 13.835,18.873C13.731,18.954 13.598,18.99 13.466,18.974C13.335,18.957 13.215,18.889 13.134,18.784C13.052,18.679 13.016,18.546 13.033,18.414C13.05,18.283 13.118,18.163 13.223,18.082C13.598,17.792 13.857,17.379 13.956,16.916C14.054,16.452 13.985,15.969 13.76,15.552C13.536,15.135 13.171,14.811 12.73,14.638C12.289,14.465 11.801,14.454 11.352,14.608C10.904,14.761 10.525,15.068 10.282,15.475C10.039,15.881 9.949,16.361 10.026,16.828C10.104,17.295 10.345,17.72 10.707,18.026C11.068,18.332 11.526,18.5 12,18.5C12.133,18.5 12.26,18.553 12.354,18.646C12.447,18.74 12.5,18.867 12.5,19C12.5,19.133 12.447,19.26 12.354,19.354C12.26,19.447 12.133,19.5 12,19.5V19.5Z"
            fill="black" />
        <path
            d="M19.5,22H4.5C4.102,22 3.721,21.842 3.439,21.561C3.158,21.279 3,20.898 3,20.5V15.914C2.999,15.717 3.038,15.522 3.113,15.34C3.189,15.158 3.3,14.992 3.44,14.854L6.353,11.939C6.493,11.8 6.658,11.689 6.84,11.613C7.022,11.538 7.217,11.5 7.415,11.5H9.5C9.5,10.837 9.763,10.201 10.232,9.732C10.701,9.263 11.337,9 12,9C12.663,9 13.299,9.263 13.768,9.732C14.237,10.201 14.5,10.837 14.5,11.5H16.586C16.783,11.5 16.978,11.538 17.16,11.614C17.342,11.689 17.507,11.8 17.646,11.939L20.56,14.854C20.7,14.992 20.811,15.158 20.887,15.34C20.962,15.522 21.001,15.717 21,15.914V20.5C21,20.898 20.842,21.279 20.561,21.561C20.279,21.842 19.898,22 19.5,22ZM7.415,12.5C7.349,12.5 7.284,12.513 7.223,12.538C7.162,12.563 7.107,12.6 7.061,12.646L4.147,15.561C4.053,15.655 4.001,15.781 4,15.914V20.5C4,20.633 4.053,20.76 4.146,20.854C4.24,20.947 4.367,21 4.5,21H19.5C19.633,21 19.76,20.947 19.854,20.854C19.947,20.76 20,20.633 20,20.5V15.914C20,15.781 19.947,15.654 19.854,15.561L16.94,12.646C16.846,12.553 16.719,12.5 16.586,12.5H14.5C14.235,12.5 13.98,12.395 13.793,12.207C13.605,12.02 13.5,11.765 13.5,11.5C13.5,11.102 13.342,10.721 13.061,10.439C12.779,10.158 12.398,10 12,10C11.602,10 11.221,10.158 10.939,10.439C10.658,10.721 10.5,11.102 10.5,11.5C10.5,11.765 10.395,12.02 10.207,12.207C10.02,12.395 9.765,12.5 9.5,12.5H7.415Z"
            fill="black" />
        <path
            d="M19.991,11.229H17.171C16.848,11.23 16.529,11.151 16.242,11.001C15.955,10.851 15.71,10.633 15.526,10.367C15.341,10.1 15.225,9.793 15.186,9.472C15.146,9.151 15.186,8.825 15.3,8.522L15.703,7.455C15.747,7.339 15.747,7.211 15.702,7.096C15.658,6.981 15.572,6.886 15.462,6.831C14.392,6.277 13.207,5.986 12.003,5.981C10.803,6.009 9.627,6.318 8.566,6.88C8.457,6.936 8.372,7.03 8.329,7.145C8.285,7.259 8.285,7.386 8.33,7.5L8.714,8.531C8.827,8.834 8.865,9.16 8.825,9.48C8.785,9.801 8.668,10.106 8.484,10.372C8.299,10.637 8.054,10.854 7.767,11.004C7.481,11.153 7.163,11.232 6.84,11.231H4.05C3.736,11.231 3.426,11.158 3.146,11.015C2.865,10.873 2.622,10.667 2.437,10.413C2.251,10.16 2.127,9.866 2.076,9.556C2.025,9.246 2.048,8.928 2.143,8.628L2.464,7.613C2.861,6.373 3.572,5.256 4.527,4.372C5.483,3.487 6.651,2.865 7.918,2.565C9.253,2.234 10.62,2.045 11.995,2C13.356,2.033 14.711,2.198 16.04,2.49C17.35,2.777 18.56,3.41 19.541,4.324C20.523,5.238 21.241,6.399 21.619,7.686L21.909,8.66C21.997,8.959 22.015,9.274 21.96,9.58C21.905,9.887 21.78,10.176 21.594,10.425C21.407,10.675 21.166,10.877 20.887,11.017C20.609,11.156 20.302,11.229 19.991,11.229V11.229ZM12.054,4.979C13.391,4.997 14.706,5.322 15.898,5.93C16.235,6.092 16.499,6.375 16.636,6.724C16.774,7.072 16.775,7.459 16.64,7.808L16.236,8.875C16.179,9.026 16.16,9.189 16.179,9.35C16.199,9.511 16.257,9.664 16.349,9.797C16.441,9.93 16.564,10.039 16.707,10.114C16.85,10.19 17.01,10.229 17.171,10.229H19.991C20.147,10.229 20.3,10.193 20.439,10.123C20.578,10.053 20.699,9.952 20.792,9.828C20.885,9.703 20.948,9.558 20.975,9.405C21.003,9.252 20.994,9.095 20.95,8.946L20.661,7.97C20.333,6.856 19.711,5.85 18.861,5.058C18.011,4.266 16.963,3.718 15.828,3.47C14.575,3.17 13.292,3.012 12.004,3C10.703,3.041 9.409,3.222 8.146,3.537C7.048,3.797 6.035,4.336 5.206,5.103C4.377,5.869 3.761,6.837 3.416,7.911L3.094,8.927C3.047,9.077 3.036,9.236 3.061,9.391C3.087,9.546 3.149,9.692 3.242,9.819C3.334,9.946 3.456,10.049 3.596,10.119C3.736,10.19 3.891,10.227 4.048,10.227H6.84C7.002,10.227 7.161,10.189 7.304,10.114C7.447,10.039 7.57,9.93 7.662,9.798C7.754,9.665 7.812,9.512 7.832,9.352C7.853,9.192 7.834,9.029 7.777,8.877L7.392,7.85C7.262,7.505 7.264,7.123 7.398,6.779C7.533,6.435 7.79,6.153 8.12,5.988C9.316,5.355 10.643,5.01 11.996,4.981L12.054,4.979Z"
            fill="black" />
    </g>
    <defs>
        <clipPath id="clip0_15_4359">
            <rect width="24" height="24" fill="black" />
        </clipPath>
    </defs>
</svg>
