
<svg xmlns="http://www.w3.org/2000/svg" width="20" height="20" viewBox="0 0 20 20">

        <clipPath id="clip-path">
            <path d="M20,0l-20,0l-0,20l20,0z"/>
        </clipPath>
        <path d="M2.373,13.85C-0.791,10.686 -0.791,5.537 2.373,2.373C5.537,-0.791 10.686,-0.791 13.85,2.373C16.534,5.057 16.941,9.05 15.07,12.167C15.07,12.167 14.936,12.393 15.117,12.574C16.153,13.609 19.258,16.714 19.258,16.714C20.082,17.538 20.278,18.691 19.547,19.422L19.421,19.547C18.691,20.278 17.538,20.082 16.714,19.258C16.714,19.258 13.616,16.159 12.583,15.126C12.392,14.936 12.167,15.071 12.167,15.071C9.05,16.941 5.057,16.534 2.373,13.85ZM12.351,12.352C14.689,10.014 14.689,6.209 12.351,3.871C10.013,1.534 6.209,1.533 3.871,3.871C1.533,6.209 1.533,10.014 3.871,12.352C6.209,14.689 10.013,14.689 12.351,12.352Z" fill="#000000"/>
        <path d="M11.834,7.63C11.943,7.63 12.053,7.609 12.16,7.564C12.586,7.383 12.785,6.892 12.605,6.466C11.472,3.788 8.372,2.532 5.694,3.665C5.268,3.845 5.069,4.336 5.249,4.762C5.429,5.188 5.921,5.388 6.347,5.207C8.174,4.434 10.289,5.292 11.062,7.119C11.197,7.438 11.507,7.63 11.834,7.63Z" fill="#000000"/>

</svg>
