<svg width="24" height="24" viewBox="0 0 24 24" fill="none" xmlns="http://www.w3.org/2000/svg">
<path d="M7.46749 11.4993C7.21268 11.5053 6.96975 11.6083 6.78835 11.7873C6.69502 11.8802 6.62097 11.9907 6.57044 12.1123C6.51991 12.2339 6.4939 12.3643 6.4939 12.496C6.4939 12.6277 6.51991 12.7581 6.57044 12.8797C6.62097 13.0013 6.69502 13.1117 6.78835 13.2047L11.2913 17.7076C11.3842 17.8009 11.4947 17.8749 11.6163 17.9255C11.7379 17.976 11.8683 18.002 12 18.002C12.1317 18.002 12.2621 17.976 12.3837 17.9255C12.5053 17.8749 12.6157 17.8009 12.7086 17.7076L17.2042 13.2047C17.2975 13.1117 17.3716 13.0013 17.4221 12.8797C17.4726 12.7581 17.4986 12.6277 17.4986 12.496C17.4986 12.3643 17.4726 12.2339 17.4221 12.1123C17.3716 11.9907 17.2975 11.8802 17.2042 11.7873C17.0168 11.6011 16.7634 11.4966 16.4992 11.4966C16.2351 11.4966 15.9816 11.6011 15.7943 11.7873L12 15.5816L8.20567 11.7873C8.10874 11.6916 7.99326 11.6166 7.86632 11.5671C7.73939 11.5176 7.60366 11.4945 7.46749 11.4993Z" fill="black"/>
<path d="M12.0017 15.9951C11.4464 15.9929 10.9956 16.4437 10.9978 16.9991V19.9961C10.9956 20.5515 11.9988 21.0001 12.0017 21.0001C12.0017 21.0001 13.0005 20.5486 12.9983 19.9961V16.9991C13.0005 16.4466 12.5542 15.997 12.0017 15.9951Z" fill="black"/>
<path d="M10.7082 0.175509C9.47021 0.507351 8.3543 1.3102 7.66692 2.50083C6.29212 4.88204 7.11643 7.95427 9.49761 9.32907C11.8788 10.7038 14.9511 9.8796 16.3259 7.49834C17.0133 6.30775 17.1586 4.93851 16.8278 3.70404C16.794 3.57698 16.7355 3.45784 16.6555 3.35343C16.5756 3.24902 16.4759 3.1614 16.3621 3.09558C16.2483 3.02976 16.1226 2.98702 15.9922 2.96983C15.8619 2.95264 15.7294 2.96132 15.6024 2.99538C15.4754 3.02919 15.3562 3.08774 15.2518 3.16765C15.1474 3.24757 15.0598 3.34729 14.994 3.46111C14.9281 3.57493 14.8854 3.70061 14.8682 3.83096C14.851 3.96132 14.8597 4.09378 14.8938 4.22078C15.0929 4.96394 15.0158 5.77189 14.5986 6.49442C13.7642 7.93957 11.9467 8.42867 10.5016 7.59431C9.0565 6.75997 8.56736 4.94255 9.40172 3.49737C10.2361 2.05223 12.0536 1.56312 13.4987 2.39746C13.7278 2.53031 14.0003 2.56684 14.2563 2.49903C14.5123 2.43122 14.731 2.2646 14.8643 2.03575C14.9972 1.80663 15.0337 1.53415 14.9659 1.27813C14.8981 1.0221 14.7315 0.803426 14.5026 0.670098C13.312 -0.0172847 11.9464 -0.15622 10.7083 0.175509H10.7082Z" fill="black"/>
<path d="M7.00244 10.9976C4.80373 10.9976 3.00146 12.7998 3.00146 14.9986V16.7776C3.00237 17.0416 3.10766 17.2946 3.29435 17.4813C3.48104 17.6679 3.73399 17.7732 3.99801 17.7741C4.12938 17.7747 4.25956 17.7493 4.38111 17.6995C4.50267 17.6497 4.61323 17.5764 4.70646 17.4839C4.79969 17.3913 4.87378 17.2813 4.92448 17.1601C4.97519 17.0389 5.00152 16.909 5.00197 16.7776V14.9986C5.00197 13.8732 5.87712 12.9981 7.00244 12.9981H16.9975C18.1228 12.9981 18.998 13.8732 18.998 14.9986V19.9961C18.998 21.1214 18.1228 21.9966 16.9975 21.9966H7.00244C5.87716 21.9966 5.00197 21.1214 5.00197 19.9961C5.00152 19.8647 4.97519 19.7347 4.92448 19.6135C4.87378 19.4924 4.79969 19.3824 4.70646 19.2898C4.61323 19.1973 4.50267 19.124 4.38111 19.0742C4.25956 19.0244 4.12938 18.999 3.99801 18.9995C3.73399 19.0004 3.48104 19.1057 3.29435 19.2924C3.10766 19.4791 3.00237 19.7321 3.00146 19.9961C3.00146 22.1948 4.80373 23.9971 7.00244 23.9971H16.9975C19.1963 23.9971 20.9985 22.1948 20.9985 19.9961V14.9986C20.9985 12.7998 19.1963 10.9976 16.9975 10.9976H7.00244Z" fill="black"/>
</svg>
