<svg xmlns="http://www.w3.org/2000/svg" width="24" height="24" viewBox="0 0 24 24">
    <g>
        <clipPath><path d="M24,0l-24,0l0,24l24,0z"/>
        </clipPath>
        <path d="M23.297,5.355C22.909,5.355 22.594,5.04 22.594,4.652V1.406H19.348C18.96,1.406 18.645,1.091 18.645,0.703C18.645,0.315 18.96,0 19.348,0H23.297C23.685,0 24,0.315 24,0.703V4.652C24,5.04 23.685,5.355 23.297,5.355Z" fill="#00D9D9"/>
        <path d="M0.703,0H4.652C5.04,0 5.355,0.315 5.355,0.703C5.355,1.091 5.04,1.406 4.652,1.406H1.406V4.652C1.406,5.04 1.091,5.355 0.703,5.355C0.315,5.355 0,5.04 0,4.652V0.703C0,0.315 0.315,0 0.703,0Z" fill="#00D9D9"/>
        <path d="M0.703,18.645C1.091,18.645 1.406,18.96 1.406,19.348V22.594H4.652C5.04,22.594 5.355,22.909 5.355,23.297C5.355,23.685 5.04,24 4.652,24H0.703C0.315,24 0,23.685 0,23.297V19.348C0,18.96 0.315,18.645 0.703,18.645Z" fill="#00D9D9"/>
        <path d="M19.348,22.594H22.594V19.348C22.594,18.96 22.909,18.645 23.297,18.645C23.685,18.645 24,18.96 24,19.348V23.297C24,23.685 23.685,24 23.297,24H19.348C18.96,24 18.645,23.685 18.645,23.297C18.645,22.909 18.96,22.594 19.348,22.594Z" fill="#00D9D9"/>
        <path d="M4.328,8.971V4.53C4.328,4.31 4.507,4.132 4.728,4.132H12H19.272C19.493,4.132 19.671,4.31 19.671,4.53V8.971C19.671,9.192 19.493,9.37 19.272,9.37H17.152C16.931,9.37 16.753,9.192 16.753,8.971V7.45C16.753,7.229 16.573,7.05 16.353,7.05H13.859C13.638,7.05 13.46,7.229 13.46,7.45V18.425C13.46,18.646 13.638,18.825 13.859,18.825H14.95C15.171,18.825 15.349,19.003 15.349,19.224V21.345C15.349,21.565 15.171,21.743 14.95,21.743H12H9.05C8.829,21.743 8.651,21.565 8.651,21.345V19.224C8.651,19.003 8.829,18.825 9.05,18.825H10.141C10.362,18.825 10.54,18.646 10.54,18.425V7.45C10.54,7.229 10.362,7.05 10.141,7.05H7.647C7.426,7.05 7.247,7.229 7.247,7.45V8.971C7.247,9.192 7.069,9.37 6.848,9.37H4.728C4.507,9.37 4.328,9.192 4.328,8.971Z" fill="#00D9D9"/>
    </g>
</svg>

