<svg xmlns="http://www.w3.org/2000/svg" width="24" height="24" viewBox="0 0 24 24">
    <path d="M13.575,4.95H2.626C1.182,4.95 0,6.131 0,7.576V16.424C0,17.869 1.182,19.05 2.626,19.05H13.575C15.02,19.05 16.201,17.869 16.201,16.424V7.576C16.201,6.105 15.02,4.95 13.575,4.95Z" fill="#424A55"/>
    <path d="M22.057,6.394C21.899,6.42 21.742,6.499 21.611,6.578L17.514,8.941V15.033L21.637,17.396C22.398,17.842 23.344,17.58 23.79,16.818C23.921,16.582 24,16.319 24,16.031V7.917C24,6.945 23.081,6.158 22.057,6.394Z" fill="#424A55"/>
</svg>

